# xmcd CD database file
#
# Track frame offsets:
#	150
#	14517
#	30622
#	49280
#	63720
#	79197
#	89167
#	107335
#	120975
#	135350
#	153120
#
# Disc length: 2192 seconds
#
# Revision: 13
# Processed by: cddbd v1.5.2PL0 Copyright (c) Steve Scherf et al.
# Submitted via: jetAudio 7
#
DISCID=87088e0b
DTITLE=Randy Travis - Greatest Hits - Volume Two
DYEAR=1992
DGENRE=Oldies
TTITLE0=Look Heart, No Hands
TTITLE1=Forever And Ever, Amen
TTITLE2=No Place Like Home
TTITLE3=Is It Still Over
TTITLE4=He Walked On Water
TTITLE5=Take Another Swing At Me
TTITLE6=Promises
TTITLE7=Diggin' Up Bones
TTITLE8=I Won't Need You Anymore (Always And Forever)
TTITLE9=It's Just A Matter Of Time
TTITLE10=I'd Do It All Again With You
EXTD=YEAR: 1992
EXTT0=
EXTT1=
EXTT2=
EXTT3=
EXTT4=
EXTT5=
EXTT6=
EXTT7=
EXTT8=
EXTT9=
EXTT10=
PLAYORDER=
